# xmcd
#
# Track frame offsets:
#	150
#	14974
#	32661
#	45552
#	68316
#	79828
#	99248
#	119071
#	131026
#	149327
#	159482
#	173028
#	193543
#
# Disc length: 2865 seconds
#
# Revision: 0
# Processed by: cddbd v1.5.2PL0 Copyright (c) Steve Scherf et al.
# Submitted via: audiograbber 1.83.01
#
DISCID=ae0b2f0d
DTITLE=Nick Charles - Return of the Travelling Fingerpicker
DYEAR=2010
DGENRE=Blues
TTITLE0=Return of the Travelling Fingerpicker
TTITLE1=George Town Revisited
TTITLE2=Pecan Pie Blues
TTITLE3=Lily Was Here
TTITLE4=Lullaby For Hamish
TTITLE5=Kelpie Blues
TTITLE6=Silent Movie
TTITLE7=Back In The Day
TTITLE8=Paul's Song
TTITLE9=I Will
TTITLE10=December Rag
TTITLE11=Greensleeves/Scarborough Fair
TTITLE12=Heartstarter
EXTD=
EXTT0=
EXTT1=
EXTT2=
EXTT3=
EXTT4=
EXTT5=
EXTT6=
EXTT7=
EXTT8=
EXTT9=
EXTT10=
EXTT11=
EXTT12=
PLAYORDER=
